# xmcd
#
# Track frame offsets:
#   150
#   13738
#   22210
#   33736
#   42937
#   56121
#   67563
#   75992
#   87346
#   101843
#   118444
#   131017
#
# Disc length: 1894 seconds
#
# Revision: 0
# Processed by: cddbd v1.4PL0 Copyright (c) Steve Scherf et al.
# Submitted via: uFREEDB 1.6.0
#
DISCID=a307640c
DTITLE=Robbins, Marty - Song Of The Islands
DYEAR=1957
DGENRE=Country
TTITLE0=Song Of The Islands
TTITLE1=Don't Sing Aloha When I Go
TTITLE2=Beyond The Reef
TTITLE3=Crying Steel Guitar Waltz
TTITLE4=My Isle Of Golden Dreams
TTITLE5=Now Is The Hour
TTITLE6=Sweet Leilani
TTITLE7=Down Where The Trade Winds Blow
TTITLE8=Constancy
TTITLE9=Island Echoes
TTITLE10=Moonland
TTITLE11=Aloha Oe
EXTD=
EXTT0=
EXTT1=
EXTT2=
EXTT3=
EXTT4=
EXTT5=
EXTT6=
EXTT7=
EXTT8=
EXTT9=
EXTT10=
EXTT11=
PLAYORDER=
